2024-08-23 15:49:22,459 - INFO - FFmpeg batch processing script started
2024-08-23 15:49:22,459 - INFO - Starting video processing for dataset/yamaha_best.mp4
2024-08-23 15:49:22,459 - INFO - Executing FFmpeg command: ffmpeg -y -i dataset/yamaha_best.mp4 -preset veryslow -crf 18 -maxrate 6000k -bufsize 9000k -vf unsharp=5:5:1.0,scale='min(1440,iw)':'-2' -c:v libx264 -preset slow -crf 23 -pix_fmt yuv420p10le -c:a aac -b:a 192k -movflags +faststart out_itr_2/processed_yamaha_best.mp4
2024-08-23 15:49:22,497 - DEBUG - ffmpeg version 7.0.2 Copyright (c) 2000-2024 the FFmpeg developers
2024-08-23 15:49:22,497 - DEBUG - built with Apple clang version 15.0.0 (clang-1500.3.9.4)
2024-08-23 15:49:22,497 - DEBUG - configuration: --prefix=/opt/homebrew/Cellar/ffmpeg/7.0.2 --enable-shared --enable-pthreads --enable-version3 --cc=clang --host-cflags= --host-ldflags='-Wl,-ld_classic' --enable-ffplay --enable-gnutls --enable-gpl --enable-libaom --enable-libaribb24 --enable-libbluray --enable-libdav1d --enable-libharfbuzz --enable-libjxl --enable-libmp3lame --enable-libopus --enable-librav1e --enable-librist --enable-librubberband --enable-libsnappy --enable-libsrt --enable-libssh --enable-libsvtav1 --enable-libtesseract --enable-libtheora --enable-libvidstab --enable-libvmaf --enable-libvorbis --enable-libvpx --enable-libwebp --enable-libx264 --enable-libx265 --enable-libxml2 --enable-libxvid --enable-lzma --enable-libfontconfig --enable-libfreetype --enable-frei0r --enable-libass --enable-libopencore-amrnb --enable-libopencore-amrwb --enable-libopenjpeg --enable-libspeex --enable-libsoxr --enable-libzmq --enable-libzimg --disable-libjack --disable-indev=jack --enable-videotoolbox --enable-audiotoolbox --enable-neon
2024-08-23 15:49:22,497 - DEBUG - libavutil      59.  8.100 / 59.  8.100
2024-08-23 15:49:22,497 - DEBUG - libavcodec     61.  3.100 / 61.  3.100
2024-08-23 15:49:22,497 - DEBUG - libavformat    61.  1.100 / 61.  1.100
2024-08-23 15:49:22,497 - DEBUG - libavdevice    61.  1.100 / 61.  1.100
2024-08-23 15:49:22,497 - DEBUG - libavfilter    10.  1.100 / 10.  1.100
2024-08-23 15:49:22,497 - DEBUG - libswscale      8.  1.100 /  8.  1.100
2024-08-23 15:49:22,497 - DEBUG - libswresample   5.  1.100 /  5.  1.100
2024-08-23 15:49:22,497 - DEBUG - libpostproc    58.  1.100 / 58.  1.100
2024-08-23 15:49:22,534 - DEBUG - Input #0, mov,mp4,m4a,3gp,3g2,mj2, from 'dataset/yamaha_best.mp4':
2024-08-23 15:49:22,534 - DEBUG - Metadata:
2024-08-23 15:49:22,534 - DEBUG - major_brand     : isom
2024-08-23 15:49:22,534 - DEBUG - minor_version   : 512
2024-08-23 15:49:22,534 - DEBUG - compatible_brands: isomiso2avc1mp41
2024-08-23 15:49:22,534 - DEBUG - encoder         : Lavf61.1.100
2024-08-23 15:49:22,534 - DEBUG - Duration: 00:00:20.01, start: 0.000000, bitrate: 2174 kb/s
2024-08-23 15:49:22,534 - DEBUG - Stream #0:0[0x1](eng): Video: h264 (High 10) (avc1 / 0x31637661), yuv420p10le(tv, bt709, progressive), 3374x4500, 1993 kb/s, 30 fps, 30 tbr, 15360 tbn (default)
2024-08-23 15:49:22,534 - DEBUG - Metadata:
2024-08-23 15:49:22,534 - DEBUG - handler_name    : ?Mainconcept Video Media Handler
2024-08-23 15:49:22,534 - DEBUG - vendor_id       : [0][0][0][0]
2024-08-23 15:49:22,534 - DEBUG - encoder         : Lavc61.3.100 libx264
2024-08-23 15:49:22,535 - DEBUG - Stream #0:1[0x2](eng): Audio: aac (LC) (mp4a / 0x6134706D), 48000 Hz, stereo, fltp, 173 kb/s (default)
2024-08-23 15:49:22,535 - DEBUG - Metadata:
2024-08-23 15:49:22,535 - DEBUG - handler_name    : #Mainconcept MP4 Sound Media Handler
2024-08-23 15:49:22,535 - DEBUG - vendor_id       : [0][0][0][0]
2024-08-23 15:49:22,538 - DEBUG - Stream mapping:
2024-08-23 15:49:22,538 - DEBUG - Stream #0:0 -> #0:0 (h264 (native) -> h264 (libx264))
2024-08-23 15:49:22,538 - DEBUG - Stream #0:1 -> #0:1 (aac (native) -> aac (native))
2024-08-23 15:49:22,538 - DEBUG - Press [q] to stop, [?] for help
2024-08-23 15:49:22,649 - DEBUG - [libx264 @ 0x154006b60] using cpu capabilities: ARMv8 NEON
2024-08-23 15:49:22,652 - DEBUG - [libx264 @ 0x154006b60] profile High 10, level 5.0, 4:2:0, 10-bit
2024-08-23 15:49:22,652 - DEBUG - [libx264 @ 0x154006b60] 264 - core 164 r3108 31e19f9 - H.264/MPEG-4 AVC codec - Copyleft 2003-2023 - http://www.videolan.org/x264.html - options: cabac=1 ref=5 deblock=1:0:0 analyse=0x3:0x113 me=hex subme=8 psy=1 psy_rd=1.00:0.00 mixed_ref=1 me_range=16 chroma_me=1 trellis=2 8x8dct=1 cqm=0 deadzone=21,11 fast_pskip=1 chroma_qp_offset=-2 threads=18 lookahead_threads=3 sliced_threads=0 nr=0 decimate=1 interlaced=0 bluray_compat=0 constrained_intra=0 bframes=3 b_pyramid=2 b_adapt=1 b_bias=0 direct=3 weightb=1 open_gop=0 weightp=2 keyint=250 keyint_min=25 scenecut=40 intra_refresh=0 rc_lookahead=50 rc=crf mbtree=1 crf=23.0 qcomp=0.60 qpmin=0 qpmax=81 qpstep=4 vbv_maxrate=6000 vbv_bufsize=9000 crf_max=0.0 nal_hrd=none filler=0 ip_ratio=1.40 aq=1:1.00
2024-08-23 15:49:22,652 - DEBUG - Output #0, mp4, to 'out_itr_2/processed_yamaha_best.mp4':
2024-08-23 15:49:22,653 - DEBUG - Metadata:
2024-08-23 15:49:22,653 - DEBUG - major_brand     : isom
2024-08-23 15:49:22,653 - DEBUG - minor_version   : 512
2024-08-23 15:49:22,653 - DEBUG - compatible_brands: isomiso2avc1mp41
2024-08-23 15:49:22,653 - DEBUG - encoder         : Lavf61.1.100
2024-08-23 15:49:22,653 - DEBUG - Stream #0:0(eng): Video: h264 (avc1 / 0x31637661), yuv420p10le(tv, bt709, progressive), 1440x1920, q=2-31, 30 fps, 15360 tbn (default)
2024-08-23 15:49:22,653 - DEBUG - Metadata:
2024-08-23 15:49:22,653 - DEBUG - handler_name    : ?Mainconcept Video Media Handler
2024-08-23 15:49:22,653 - DEBUG - vendor_id       : [0][0][0][0]
2024-08-23 15:49:22,653 - DEBUG - encoder         : Lavc61.3.100 libx264
2024-08-23 15:49:22,653 - DEBUG - Side data:
2024-08-23 15:49:22,653 - DEBUG - cpb: bitrate max/min/avg: 6000000/0/0 buffer size: 9000000 vbv_delay: N/A
2024-08-23 15:49:22,653 - DEBUG - Stream #0:1(eng): Audio: aac (LC) (mp4a / 0x6134706D), 48000 Hz, stereo, fltp, 192 kb/s (default)
2024-08-23 15:49:22,653 - DEBUG - Metadata:
2024-08-23 15:49:22,653 - DEBUG - handler_name    : #Mainconcept MP4 Sound Media Handler
2024-08-23 15:49:22,653 - DEBUG - vendor_id       : [0][0][0][0]
2024-08-23 15:49:22,653 - DEBUG - encoder         : Lavc61.3.100 aac
2024-08-23 15:49:23,550 - DEBUG - frame=    0 fps=0.0 q=0.0 size=       0KiB time=N/A bitrate=N/A speed=N/A
2024-08-23 15:49:24,055 - DEBUG - frame=    0 fps=0.0 q=0.0 size=       0KiB time=N/A bitrate=N/A speed=N/A
2024-08-23 15:49:24,557 - DEBUG - frame=    7 fps=4.6 q=41.0 size=       0KiB time=00:00:00.16 bitrate=   2.3kbits/s speed=0.11x
2024-08-23 15:49:25,061 - DEBUG - frame=   31 fps= 15 q=41.0 size=       0KiB time=00:00:00.96 bitrate=   0.4kbits/s speed=0.479x
2024-08-23 15:49:25,566 - DEBUG - frame=   56 fps= 22 q=41.0 size=       0KiB time=00:00:01.80 bitrate=   0.2kbits/s speed=0.713x
2024-08-23 15:49:26,071 - DEBUG - frame=   82 fps= 27 q=41.0 size=       0KiB time=00:00:02.66 bitrate=   0.1kbits/s speed=0.881x
2024-08-23 15:49:26,576 - DEBUG - frame=  105 fps= 30 q=41.0 size=       0KiB time=00:00:03.43 bitrate=   0.1kbits/s speed=0.972x
2024-08-23 15:49:27,078 - DEBUG - frame=  130 fps= 32 q=41.0 size=     256KiB time=00:00:04.26 bitrate= 491.6kbits/s speed=1.06x
2024-08-23 15:49:27,582 - DEBUG - frame=  155 fps= 34 q=41.0 size=     256KiB time=00:00:05.10 bitrate= 411.3kbits/s speed=1.12x
2024-08-23 15:49:28,087 - DEBUG - frame=  179 fps= 35 q=41.0 size=     256KiB time=00:00:05.90 bitrate= 355.5kbits/s speed=1.17x
2024-08-23 15:49:28,597 - DEBUG - frame=  205 fps= 37 q=41.0 size=     256KiB time=00:00:06.76 bitrate= 310.0kbits/s speed=1.22x
2024-08-23 15:49:29,099 - DEBUG - frame=  229 fps= 38 q=41.0 size=     256KiB time=00:00:07.56 bitrate= 277.2kbits/s speed=1.25x
2024-08-23 15:49:29,600 - DEBUG - frame=  250 fps= 38 q=41.0 size=     256KiB time=00:00:08.26 bitrate= 253.7kbits/s speed=1.26x
2024-08-23 15:49:30,104 - DEBUG - frame=  269 fps= 38 q=41.0 size=     512KiB time=00:00:08.90 bitrate= 471.3kbits/s speed=1.26x
2024-08-23 15:49:30,614 - DEBUG - frame=  287 fps= 38 q=41.0 size=     768KiB time=00:00:09.50 bitrate= 662.3kbits/s speed=1.26x
2024-08-23 15:49:31,118 - DEBUG - frame=  310 fps= 38 q=41.0 size=     768KiB time=00:00:10.26 bitrate= 612.8kbits/s speed=1.27x
2024-08-23 15:49:31,618 - DEBUG - frame=  326 fps= 38 q=41.0 size=     768KiB time=00:00:10.80 bitrate= 582.6kbits/s speed=1.26x
2024-08-23 15:49:32,123 - DEBUG - frame=  338 fps= 37 q=41.0 size=    1024KiB time=00:00:11.20 bitrate= 749.0kbits/s speed=1.23x
2024-08-23 15:49:32,623 - DEBUG - frame=  357 fps= 37 q=41.0 size=    1024KiB time=00:00:11.83 bitrate= 708.9kbits/s speed=1.23x
2024-08-23 15:49:33,128 - DEBUG - frame=  375 fps= 37 q=41.0 size=    1024KiB time=00:00:12.43 bitrate= 674.7kbits/s speed=1.23x
2024-08-23 15:49:33,633 - DEBUG - frame=  392 fps= 37 q=41.0 size=    1280KiB time=00:00:13.00 bitrate= 806.6kbits/s speed=1.23x
2024-08-23 15:49:34,134 - DEBUG - frame=  410 fps= 37 q=41.0 size=    1280KiB time=00:00:13.60 bitrate= 771.0kbits/s speed=1.23x
2024-08-23 15:49:34,639 - DEBUG - frame=  419 fps= 36 q=41.0 size=    1280KiB time=00:00:13.90 bitrate= 754.4kbits/s speed= 1.2x
2024-08-23 15:49:35,144 - DEBUG - frame=  447 fps= 37 q=41.0 size=    1536KiB time=00:00:14.83 bitrate= 848.3kbits/s speed=1.23x
2024-08-23 15:49:35,649 - DEBUG - frame=  468 fps= 37 q=41.0 size=    1536KiB time=00:00:15.53 bitrate= 810.1kbits/s speed=1.23x
2024-08-23 15:49:36,154 - DEBUG - frame=  488 fps= 37 q=41.0 size=    1536KiB time=00:00:16.20 bitrate= 776.7kbits/s speed=1.24x
2024-08-23 15:49:36,656 - DEBUG - frame=  519 fps= 38 q=41.0 size=    1792KiB time=00:00:17.23 bitrate= 851.9kbits/s speed=1.27x
2024-08-23 15:49:36,689 - DEBUG - frame=  590 fps= 42 q=-1.0 size=    1792KiB time=N/A bitrate=N/A speed=N/A
2024-08-23 15:49:36,689 - DEBUG - [mp4 @ 0x15400ae90] Starting second pass: moving the moov atom to the beginning of the file
2024-08-23 15:49:36,691 - DEBUG - [out#0/mp4 @ 0x15400add0] video:1494KiB audio:424KiB subtitle:0KiB other streams:0KiB global headers:0KiB muxing overhead: 1.194967%
2024-08-23 15:49:36,691 - DEBUG - frame=  600 fps= 42 q=-1.0 Lsize=    1941KiB time=00:00:19.93 bitrate= 797.8kbits/s speed=1.41x
2024-08-23 15:49:36,691 - DEBUG - [libx264 @ 0x154006b60] frame I:3     Avg QP:24.36  size:113512
2024-08-23 15:49:36,691 - DEBUG - [libx264 @ 0x154006b60] frame P:167   Avg QP:29.65  size:  4940
2024-08-23 15:49:36,691 - DEBUG - [libx264 @ 0x154006b60] frame B:430   Avg QP:31.07  size:   846
2024-08-23 15:49:36,691 - DEBUG - [libx264 @ 0x154006b60] consecutive B-frames:  2.0%  6.3%  3.0% 88.7%
2024-08-23 15:49:36,691 - DEBUG - [libx264 @ 0x154006b60] mb I  I16..4: 24.7% 68.2%  7.0%
2024-08-23 15:49:36,691 - DEBUG - [libx264 @ 0x154006b60] mb P  I16..4:  1.0%  1.9%  0.1%  P16..4:  4.2%  0.6%  0.4%  0.0%  0.0%    skip:91.7%
2024-08-23 15:49:36,691 - DEBUG - [libx264 @ 0x154006b60] mb B  I16..4:  0.0%  0.0%  0.0%  B16..8:  2.1%  0.2%  0.1%  direct: 0.1%  skip:97.5%  L0:39.2% L1:54.3% BI: 6.5%
2024-08-23 15:49:36,691 - DEBUG - [libx264 @ 0x154006b60] 8x8 transform intra:64.2% inter:56.0%
2024-08-23 15:49:36,691 - DEBUG - [libx264 @ 0x154006b60] direct mvs  spatial:97.9% temporal:2.1%
2024-08-23 15:49:36,691 - DEBUG - [libx264 @ 0x154006b60] coded y,uvDC,uvAC intra: 12.6% 5.5% 3.2% inter: 0.6% 0.3% 0.1%
2024-08-23 15:49:36,691 - DEBUG - [libx264 @ 0x154006b60] i16 v,h,dc,p: 68% 18%  5%  9%
2024-08-23 15:49:36,691 - DEBUG - [libx264 @ 0x154006b60] i8 v,h,dc,ddl,ddr,vr,hd,vl,hu: 32% 11% 40%  2%  3%  3%  3%  2%  3%
2024-08-23 15:49:36,691 - DEBUG - [libx264 @ 0x154006b60] i4 v,h,dc,ddl,ddr,vr,hd,vl,hu: 16% 23% 16%  6%  8%  6%  8%  6% 11%
2024-08-23 15:49:36,691 - DEBUG - [libx264 @ 0x154006b60] i8c dc,h,v,p: 94%  3%  2%  1%
2024-08-23 15:49:36,691 - DEBUG - [libx264 @ 0x154006b60] Weighted P-Frames: Y:0.0% UV:0.0%
2024-08-23 15:49:36,691 - DEBUG - [libx264 @ 0x154006b60] ref P L0: 82.1%  9.4%  5.4%  2.9%  0.2%
2024-08-23 15:49:36,691 - DEBUG - [libx264 @ 0x154006b60] ref B L0: 85.4% 11.7%  2.4%  0.5%
2024-08-23 15:49:36,691 - DEBUG - [libx264 @ 0x154006b60] ref B L1: 97.0%  3.0%
2024-08-23 15:49:36,691 - DEBUG - [libx264 @ 0x154006b60] kb/s:611.80
2024-08-23 15:49:36,710 - DEBUG - [aac @ 0x152f95a30] Qavg: 8809.750
2024-08-23 15:49:36,758 - INFO - Video processing completed. Output saved to out_itr_2/processed_yamaha_best.mp4
2024-08-23 15:49:36,758 - INFO - Starting video processing for dataset/yamaha.mp4
2024-08-23 15:49:36,758 - INFO - Executing FFmpeg command: ffmpeg -y -i dataset/yamaha.mp4 -preset veryslow -crf 18 -maxrate 6000k -bufsize 9000k -vf unsharp=5:5:1.0,scale='min(1440,iw)':'-2' -c:v libx264 -preset slow -crf 23 -pix_fmt yuv420p10le -c:a aac -b:a 192k -movflags +faststart out_itr_2/processed_yamaha.mp4
2024-08-23 15:49:36,790 - DEBUG - ffmpeg version 7.0.2 Copyright (c) 2000-2024 the FFmpeg developers
2024-08-23 15:49:36,790 - DEBUG - built with Apple clang version 15.0.0 (clang-1500.3.9.4)
2024-08-23 15:49:36,790 - DEBUG - configuration: --prefix=/opt/homebrew/Cellar/ffmpeg/7.0.2 --enable-shared --enable-pthreads --enable-version3 --cc=clang --host-cflags= --host-ldflags='-Wl,-ld_classic' --enable-ffplay --enable-gnutls --enable-gpl --enable-libaom --enable-libaribb24 --enable-libbluray --enable-libdav1d --enable-libharfbuzz --enable-libjxl --enable-libmp3lame --enable-libopus --enable-librav1e --enable-librist --enable-librubberband --enable-libsnappy --enable-libsrt --enable-libssh --enable-libsvtav1 --enable-libtesseract --enable-libtheora --enable-libvidstab --enable-libvmaf --enable-libvorbis --enable-libvpx --enable-libwebp --enable-libx264 --enable-libx265 --enable-libxml2 --enable-libxvid --enable-lzma --enable-libfontconfig --enable-libfreetype --enable-frei0r --enable-libass --enable-libopencore-amrnb --enable-libopencore-amrwb --enable-libopenjpeg --enable-libspeex --enable-libsoxr --enable-libzmq --enable-libzimg --disable-libjack --disable-indev=jack --enable-videotoolbox --enable-audiotoolbox --enable-neon
2024-08-23 15:49:36,790 - DEBUG - libavutil      59.  8.100 / 59.  8.100
2024-08-23 15:49:36,790 - DEBUG - libavcodec     61.  3.100 / 61.  3.100
2024-08-23 15:49:36,790 - DEBUG - libavformat    61.  1.100 / 61.  1.100
2024-08-23 15:49:36,790 - DEBUG - libavdevice    61.  1.100 / 61.  1.100
2024-08-23 15:49:36,790 - DEBUG - libavfilter    10.  1.100 / 10.  1.100
2024-08-23 15:49:36,790 - DEBUG - libswscale      8.  1.100 /  8.  1.100
2024-08-23 15:49:36,790 - DEBUG - libswresample   5.  1.100 /  5.  1.100
2024-08-23 15:49:36,790 - DEBUG - libpostproc    58.  1.100 / 58.  1.100
2024-08-23 15:49:36,889 - DEBUG - Input #0, mov,mp4,m4a,3gp,3g2,mj2, from 'dataset/yamaha.mp4':
2024-08-23 15:49:36,889 - DEBUG - Metadata:
2024-08-23 15:49:36,889 - DEBUG - major_brand     : mp42
2024-08-23 15:49:36,889 - DEBUG - minor_version   : 0
2024-08-23 15:49:36,889 - DEBUG - compatible_brands: mp42mp41
2024-08-23 15:49:36,889 - DEBUG - creation_time   : 2024-07-09T14:11:58.000000Z
2024-08-23 15:49:36,889 - DEBUG - Duration: 00:00:20.00, start: 0.000000, bitrate: 5396 kb/s
2024-08-23 15:49:36,889 - DEBUG - Stream #0:0[0x1](eng): Video: h264 (Main) (avc1 / 0x31637661), yuv420p(tv, bt709, progressive), 3374x4500, 5041 kb/s, 30 fps, 30 tbr, 30k tbn (default)
2024-08-23 15:49:36,889 - DEBUG - Metadata:
2024-08-23 15:49:36,889 - DEBUG - creation_time   : 2024-07-09T14:11:58.000000Z
2024-08-23 15:49:36,889 - DEBUG - handler_name    : ?Mainconcept Video Media Handler
2024-08-23 15:49:36,889 - DEBUG - vendor_id       : [0][0][0][0]
2024-08-23 15:49:36,889 - DEBUG - encoder         : AVC Coding
2024-08-23 15:49:36,889 - DEBUG - Stream #0:1[0x2](eng): Audio: aac (LC) (mp4a / 0x6134706D), 48000 Hz, stereo, fltp, 317 kb/s (default)
2024-08-23 15:49:36,889 - DEBUG - Metadata:
2024-08-23 15:49:36,889 - DEBUG - creation_time   : 2024-07-09T14:11:58.000000Z
2024-08-23 15:49:36,889 - DEBUG - handler_name    : #Mainconcept MP4 Sound Media Handler
2024-08-23 15:49:36,889 - DEBUG - vendor_id       : [0][0][0][0]
2024-08-23 15:49:36,893 - DEBUG - Stream mapping:
2024-08-23 15:49:36,893 - DEBUG - Stream #0:0 -> #0:0 (h264 (native) -> h264 (libx264))
2024-08-23 15:49:36,893 - DEBUG - Stream #0:1 -> #0:1 (aac (native) -> aac (native))
2024-08-23 15:49:36,893 - DEBUG - Press [q] to stop, [?] for help
2024-08-23 15:49:36,956 - DEBUG - [libx264 @ 0x14c729e40] using cpu capabilities: ARMv8 NEON
2024-08-23 15:49:36,957 - DEBUG - [libx264 @ 0x14c729e40] profile High 10, level 5.0, 4:2:0, 10-bit
2024-08-23 15:49:36,957 - DEBUG - [libx264 @ 0x14c729e40] 264 - core 164 r3108 31e19f9 - H.264/MPEG-4 AVC codec - Copyleft 2003-2023 - http://www.videolan.org/x264.html - options: cabac=1 ref=5 deblock=1:0:0 analyse=0x3:0x113 me=hex subme=8 psy=1 psy_rd=1.00:0.00 mixed_ref=1 me_range=16 chroma_me=1 trellis=2 8x8dct=1 cqm=0 deadzone=21,11 fast_pskip=1 chroma_qp_offset=-2 threads=18 lookahead_threads=3 sliced_threads=0 nr=0 decimate=1 interlaced=0 bluray_compat=0 constrained_intra=0 bframes=3 b_pyramid=2 b_adapt=1 b_bias=0 direct=3 weightb=1 open_gop=0 weightp=2 keyint=250 keyint_min=25 scenecut=40 intra_refresh=0 rc_lookahead=50 rc=crf mbtree=1 crf=23.0 qcomp=0.60 qpmin=0 qpmax=81 qpstep=4 vbv_maxrate=6000 vbv_bufsize=9000 crf_max=0.0 nal_hrd=none filler=0 ip_ratio=1.40 aq=1:1.00
2024-08-23 15:49:36,957 - DEBUG - Output #0, mp4, to 'out_itr_2/processed_yamaha.mp4':
2024-08-23 15:49:36,957 - DEBUG - Metadata:
2024-08-23 15:49:36,957 - DEBUG - major_brand     : mp42
2024-08-23 15:49:36,957 - DEBUG - minor_version   : 0
2024-08-23 15:49:36,957 - DEBUG - compatible_brands: mp42mp41
2024-08-23 15:49:36,957 - DEBUG - encoder         : Lavf61.1.100
2024-08-23 15:49:36,957 - DEBUG - Stream #0:0(eng): Video: h264 (avc1 / 0x31637661), yuv420p10le(tv, bt709, progressive), 1440x1920, q=2-31, 30 fps, 15360 tbn (default)
2024-08-23 15:49:36,957 - DEBUG - Metadata:
2024-08-23 15:49:36,957 - DEBUG - creation_time   : 2024-07-09T14:11:58.000000Z
2024-08-23 15:49:36,957 - DEBUG - handler_name    : ?Mainconcept Video Media Handler
2024-08-23 15:49:36,957 - DEBUG - vendor_id       : [0][0][0][0]
2024-08-23 15:49:36,957 - DEBUG - encoder         : Lavc61.3.100 libx264
2024-08-23 15:49:36,957 - DEBUG - Side data:
2024-08-23 15:49:36,957 - DEBUG - cpb: bitrate max/min/avg: 6000000/0/0 buffer size: 9000000 vbv_delay: N/A
2024-08-23 15:49:36,957 - DEBUG - Stream #0:1(eng): Audio: aac (LC) (mp4a / 0x6134706D), 48000 Hz, stereo, fltp, 192 kb/s (default)
2024-08-23 15:49:36,957 - DEBUG - Metadata:
2024-08-23 15:49:36,957 - DEBUG - creation_time   : 2024-07-09T14:11:58.000000Z
2024-08-23 15:49:36,957 - DEBUG - handler_name    : #Mainconcept MP4 Sound Media Handler
2024-08-23 15:49:36,957 - DEBUG - vendor_id       : [0][0][0][0]
2024-08-23 15:49:36,957 - DEBUG - encoder         : Lavc61.3.100 aac
2024-08-23 15:49:37,906 - DEBUG - frame=    0 fps=0.0 q=0.0 size=       0KiB time=N/A bitrate=N/A speed=N/A
2024-08-23 15:49:38,411 - DEBUG - frame=    0 fps=0.0 q=0.0 size=       0KiB time=N/A bitrate=N/A speed=N/A
2024-08-23 15:49:38,921 - DEBUG - frame=   26 fps= 17 q=41.0 size=       0KiB time=00:00:00.80 bitrate=   0.5kbits/s speed=0.527x
2024-08-23 15:49:39,424 - DEBUG - frame=   54 fps= 27 q=41.0 size=       0KiB time=00:00:01.73 bitrate=   0.2kbits/s speed=0.856x
2024-08-23 15:49:39,929 - DEBUG - frame=   82 fps= 32 q=41.0 size=       0KiB time=00:00:02.66 bitrate=   0.1kbits/s speed=1.05x
2024-08-23 15:49:40,434 - DEBUG - frame=  107 fps= 35 q=41.0 size=       0KiB time=00:00:03.50 bitrate=   0.1kbits/s speed=1.15x
2024-08-23 15:49:40,937 - DEBUG - frame=  135 fps= 38 q=41.0 size=     256KiB time=00:00:04.43 bitrate= 473.1kbits/s speed=1.25x
2024-08-23 15:49:41,442 - DEBUG - frame=  163 fps= 40 q=41.0 size=     256KiB time=00:00:05.36 bitrate= 390.8kbits/s speed=1.33x
2024-08-23 15:49:41,947 - DEBUG - frame=  190 fps= 42 q=41.0 size=     256KiB time=00:00:06.26 bitrate= 334.7kbits/s speed=1.38x
2024-08-23 15:49:42,453 - DEBUG - frame=  217 fps= 43 q=41.0 size=     256KiB time=00:00:07.16 bitrate= 292.7kbits/s speed=1.42x
2024-08-23 15:49:42,958 - DEBUG - frame=  238 fps= 43 q=41.0 size=     256KiB time=00:00:07.86 bitrate= 266.6kbits/s speed=1.41x
2024-08-23 15:49:43,459 - DEBUG - frame=  263 fps= 43 q=41.0 size=     512KiB time=00:00:08.70 bitrate= 482.1kbits/s speed=1.43x
2024-08-23 15:49:43,962 - DEBUG - frame=  282 fps= 43 q=41.0 size=     768KiB time=00:00:09.33 bitrate= 674.1kbits/s speed=1.42x
2024-08-23 15:49:44,467 - DEBUG - frame=  303 fps= 43 q=41.0 size=     768KiB time=00:00:10.03 bitrate= 627.1kbits/s speed=1.42x
2024-08-23 15:49:44,972 - DEBUG - frame=  322 fps= 43 q=41.0 size=     768KiB time=00:00:10.66 bitrate= 589.9kbits/s speed=1.41x
2024-08-23 15:49:45,477 - DEBUG - frame=  336 fps= 42 q=41.0 size=    1024KiB time=00:00:11.13 bitrate= 753.5kbits/s speed=1.38x
2024-08-23 15:49:45,982 - DEBUG - frame=  356 fps= 41 q=41.0 size=    1024KiB time=00:00:11.80 bitrate= 710.9kbits/s speed=1.37x
2024-08-23 15:49:46,483 - DEBUG - frame=  377 fps= 41 q=41.0 size=    1280KiB time=00:00:12.50 bitrate= 838.9kbits/s speed=1.38x
2024-08-23 15:49:46,988 - DEBUG - frame=  393 fps= 41 q=41.0 size=    1280KiB time=00:00:13.03 bitrate= 804.6kbits/s speed=1.36x
2024-08-23 15:49:47,492 - DEBUG - frame=  413 fps= 41 q=41.0 size=    1536KiB time=00:00:13.70 bitrate= 918.5kbits/s speed=1.36x
2024-08-23 15:49:47,997 - DEBUG - frame=  428 fps= 40 q=41.0 size=    1536KiB time=00:00:14.20 bitrate= 886.1kbits/s speed=1.34x
2024-08-23 15:49:48,499 - DEBUG - frame=  449 fps= 40 q=41.0 size=    1536KiB time=00:00:14.90 bitrate= 844.5kbits/s speed=1.34x
2024-08-23 15:49:49,004 - DEBUG - frame=  476 fps= 41 q=41.0 size=    1536KiB time=00:00:15.80 bitrate= 796.4kbits/s speed=1.36x
2024-08-23 15:49:49,508 - DEBUG - frame=  500 fps= 41 q=41.0 size=    1536KiB time=00:00:16.60 bitrate= 758.0kbits/s speed=1.37x
2024-08-23 15:49:49,824 - DEBUG - frame=  546 fps= 43 q=41.0 size=    1792KiB time=N/A bitrate=N/A speed=N/A
2024-08-23 15:49:49,824 - DEBUG - [mp4 @ 0x14c730780] Starting second pass: moving the moov atom to the beginning of the file
2024-08-23 15:49:49,826 - DEBUG - [out#0/mp4 @ 0x14c72f510] video:1601KiB audio:425KiB subtitle:0KiB other streams:0KiB global headers:0KiB muxing overhead: 1.129169%
2024-08-23 15:49:49,826 - DEBUG - frame=  600 fps= 46 q=-1.0 Lsize=    2048KiB time=00:00:19.93 bitrate= 841.8kbits/s speed=1.54x
2024-08-23 15:49:49,827 - DEBUG - [libx264 @ 0x14c729e40] frame I:3     Avg QP:24.80  size:121957
2024-08-23 15:49:49,827 - DEBUG - [libx264 @ 0x14c729e40] frame P:170   Avg QP:28.98  size:  5278
2024-08-23 15:49:49,827 - DEBUG - [libx264 @ 0x14c729e40] frame B:427   Avg QP:31.24  size:   878
2024-08-23 15:49:49,827 - DEBUG - [libx264 @ 0x14c729e40] consecutive B-frames:  2.2%  7.7%  3.5% 86.7%
2024-08-23 15:49:49,827 - DEBUG - [libx264 @ 0x14c729e40] mb I  I16..4: 25.8% 66.7%  7.4%
2024-08-23 15:49:49,827 - DEBUG - [libx264 @ 0x14c729e40] mb P  I16..4:  0.9%  2.0%  0.1%  P16..4:  4.0%  0.6%  0.5%  0.0%  0.0%    skip:92.0%
2024-08-23 15:49:49,827 - DEBUG - [libx264 @ 0x14c729e40] mb B  I16..4:  0.0%  0.0%  0.0%  B16..8:  2.2%  0.2%  0.1%  direct: 0.1%  skip:97.4%  L0:36.1% L1:57.3% BI: 6.5%
2024-08-23 15:49:49,827 - DEBUG - [libx264 @ 0x14c729e40] 8x8 transform intra:66.4% inter:53.1%
2024-08-23 15:49:49,827 - DEBUG - [libx264 @ 0x14c729e40] direct mvs  spatial:97.7% temporal:2.3%
2024-08-23 15:49:49,827 - DEBUG - [libx264 @ 0x14c729e40] coded y,uvDC,uvAC intra: 12.0% 4.9% 3.0% inter: 0.6% 0.3% 0.1%
2024-08-23 15:49:49,827 - DEBUG - [libx264 @ 0x14c729e40] i16 v,h,dc,p: 66% 21%  5%  8%
2024-08-23 15:49:49,827 - DEBUG - [libx264 @ 0x14c729e40] i8 v,h,dc,ddl,ddr,vr,hd,vl,hu: 35% 12% 39%  2%  3%  2%  3%  2%  3%
2024-08-23 15:49:49,827 - DEBUG - [libx264 @ 0x14c729e40] i4 v,h,dc,ddl,ddr,vr,hd,vl,hu: 15% 22% 18%  6%  8%  6%  8%  7% 11%
2024-08-23 15:49:49,827 - DEBUG - [libx264 @ 0x14c729e40] i8c dc,h,v,p: 94%  3%  1%  1%
2024-08-23 15:49:49,827 - DEBUG - [libx264 @ 0x14c729e40] Weighted P-Frames: Y:0.0% UV:0.0%
2024-08-23 15:49:49,827 - DEBUG - [libx264 @ 0x14c729e40] ref P L0: 81.6%  9.4%  6.0%  2.8%  0.1%
2024-08-23 15:49:49,827 - DEBUG - [libx264 @ 0x14c729e40] ref B L0: 85.3% 11.5%  2.6%  0.6%
2024-08-23 15:49:49,827 - DEBUG - [libx264 @ 0x14c729e40] ref B L1: 96.2%  3.8%
2024-08-23 15:49:49,827 - DEBUG - [libx264 @ 0x14c729e40] kb/s:655.29
2024-08-23 15:49:49,846 - DEBUG - [aac @ 0x14c799740] Qavg: 8839.155
2024-08-23 15:49:49,868 - INFO - Video processing completed. Output saved to out_itr_2/processed_yamaha.mp4
2024-08-23 15:49:49,868 - INFO - Starting video processing for dataset/HOD.mp4
2024-08-23 15:49:49,868 - INFO - Executing FFmpeg command: ffmpeg -y -i dataset/HOD.mp4 -preset veryslow -crf 18 -maxrate 6000k -bufsize 9000k -vf unsharp=5:5:1.0,scale='min(1440,iw)':'-2' -c:v libx264 -preset slow -crf 23 -pix_fmt yuv420p10le -c:a aac -b:a 192k -movflags +faststart out_itr_2/processed_HOD.mp4
2024-08-23 15:49:49,894 - DEBUG - ffmpeg version 7.0.2 Copyright (c) 2000-2024 the FFmpeg developers
2024-08-23 15:49:49,894 - DEBUG - built with Apple clang version 15.0.0 (clang-1500.3.9.4)
2024-08-23 15:49:49,894 - DEBUG - configuration: --prefix=/opt/homebrew/Cellar/ffmpeg/7.0.2 --enable-shared --enable-pthreads --enable-version3 --cc=clang --host-cflags= --host-ldflags='-Wl,-ld_classic' --enable-ffplay --enable-gnutls --enable-gpl --enable-libaom --enable-libaribb24 --enable-libbluray --enable-libdav1d --enable-libharfbuzz --enable-libjxl --enable-libmp3lame --enable-libopus --enable-librav1e --enable-librist --enable-librubberband --enable-libsnappy --enable-libsrt --enable-libssh --enable-libsvtav1 --enable-libtesseract --enable-libtheora --enable-libvidstab --enable-libvmaf --enable-libvorbis --enable-libvpx --enable-libwebp --enable-libx264 --enable-libx265 --enable-libxml2 --enable-libxvid --enable-lzma --enable-libfontconfig --enable-libfreetype --enable-frei0r --enable-libass --enable-libopencore-amrnb --enable-libopencore-amrwb --enable-libopenjpeg --enable-libspeex --enable-libsoxr --enable-libzmq --enable-libzimg --disable-libjack --disable-indev=jack --enable-videotoolbox --enable-audiotoolbox --enable-neon
2024-08-23 15:49:49,894 - DEBUG - libavutil      59.  8.100 / 59.  8.100
2024-08-23 15:49:49,894 - DEBUG - libavcodec     61.  3.100 / 61.  3.100
2024-08-23 15:49:49,894 - DEBUG - libavformat    61.  1.100 / 61.  1.100
2024-08-23 15:49:49,894 - DEBUG - libavdevice    61.  1.100 / 61.  1.100
2024-08-23 15:49:49,894 - DEBUG - libavfilter    10.  1.100 / 10.  1.100
2024-08-23 15:49:49,894 - DEBUG - libswscale      8.  1.100 /  8.  1.100
2024-08-23 15:49:49,894 - DEBUG - libswresample   5.  1.100 /  5.  1.100
2024-08-23 15:49:49,894 - DEBUG - libpostproc    58.  1.100 / 58.  1.100
2024-08-23 15:49:49,973 - DEBUG - Input #0, mov,mp4,m4a,3gp,3g2,mj2, from 'dataset/HOD.mp4':
2024-08-23 15:49:49,973 - DEBUG - Metadata:
2024-08-23 15:49:49,973 - DEBUG - major_brand     : mp42
2024-08-23 15:49:49,973 - DEBUG - minor_version   : 0
2024-08-23 15:49:49,973 - DEBUG - compatible_brands: mp42mp41
2024-08-23 15:49:49,973 - DEBUG - creation_time   : 2024-06-21T15:37:35.000000Z
2024-08-23 15:49:49,973 - DEBUG - Duration: 00:00:22.13, start: 0.000000, bitrate: 10470 kb/s
2024-08-23 15:49:49,973 - DEBUG - Stream #0:0[0x2](eng): Audio: aac (LC) (mp4a / 0x6134706D), 48000 Hz, stereo, fltp, 317 kb/s (default)
2024-08-23 15:49:49,973 - DEBUG - Metadata:
2024-08-23 15:49:49,973 - DEBUG - creation_time   : 2024-06-21T15:37:45.000000Z
2024-08-23 15:49:49,973 - DEBUG - handler_name    : #Mainconcept MP4 Sound Media Handler
2024-08-23 15:49:49,973 - DEBUG - vendor_id       : [0][0][0][0]
2024-08-23 15:49:49,973 - DEBUG - Stream #0:1[0x1](eng): Video: h264 (Main) (avc1 / 0x31637661), yuv420p(tv, bt709, progressive), 3374x4500, 10095 kb/s, 30 fps, 30 tbr, 30k tbn (default)
2024-08-23 15:49:49,973 - DEBUG - Metadata:
2024-08-23 15:49:49,973 - DEBUG - creation_time   : 2024-06-21T15:37:50.000000Z
2024-08-23 15:49:49,973 - DEBUG - handler_name    : ?Mainconcept Video Media Handler
2024-08-23 15:49:49,973 - DEBUG - vendor_id       : [0][0][0][0]
2024-08-23 15:49:49,973 - DEBUG - encoder         : AVC Coding
2024-08-23 15:49:49,974 - DEBUG - Stream mapping:
2024-08-23 15:49:49,974 - DEBUG - Stream #0:1 -> #0:0 (h264 (native) -> h264 (libx264))
2024-08-23 15:49:49,974 - DEBUG - Stream #0:0 -> #0:1 (aac (native) -> aac (native))
2024-08-23 15:49:49,974 - DEBUG - Press [q] to stop, [?] for help
2024-08-23 15:49:50,028 - DEBUG - [libx264 @ 0x136f0b670] using cpu capabilities: ARMv8 NEON
2024-08-23 15:49:50,029 - DEBUG - [libx264 @ 0x136f0b670] profile High 10, level 5.0, 4:2:0, 10-bit
2024-08-23 15:49:50,029 - DEBUG - [libx264 @ 0x136f0b670] 264 - core 164 r3108 31e19f9 - H.264/MPEG-4 AVC codec - Copyleft 2003-2023 - http://www.videolan.org/x264.html - options: cabac=1 ref=5 deblock=1:0:0 analyse=0x3:0x113 me=hex subme=8 psy=1 psy_rd=1.00:0.00 mixed_ref=1 me_range=16 chroma_me=1 trellis=2 8x8dct=1 cqm=0 deadzone=21,11 fast_pskip=1 chroma_qp_offset=-2 threads=18 lookahead_threads=3 sliced_threads=0 nr=0 decimate=1 interlaced=0 bluray_compat=0 constrained_intra=0 bframes=3 b_pyramid=2 b_adapt=1 b_bias=0 direct=3 weightb=1 open_gop=0 weightp=2 keyint=250 keyint_min=25 scenecut=40 intra_refresh=0 rc_lookahead=50 rc=crf mbtree=1 crf=23.0 qcomp=0.60 qpmin=0 qpmax=81 qpstep=4 vbv_maxrate=6000 vbv_bufsize=9000 crf_max=0.0 nal_hrd=none filler=0 ip_ratio=1.40 aq=1:1.00
2024-08-23 15:49:50,029 - DEBUG - Output #0, mp4, to 'out_itr_2/processed_HOD.mp4':
2024-08-23 15:49:50,029 - DEBUG - Metadata:
2024-08-23 15:49:50,029 - DEBUG - major_brand     : mp42
2024-08-23 15:49:50,029 - DEBUG - minor_version   : 0
2024-08-23 15:49:50,029 - DEBUG - compatible_brands: mp42mp41
2024-08-23 15:49:50,029 - DEBUG - encoder         : Lavf61.1.100
2024-08-23 15:49:50,029 - DEBUG - Stream #0:0(eng): Video: h264 (avc1 / 0x31637661), yuv420p10le(tv, bt709, progressive), 1440x1920, q=2-31, 30 fps, 15360 tbn (default)
2024-08-23 15:49:50,029 - DEBUG - Metadata:
2024-08-23 15:49:50,029 - DEBUG - creation_time   : 2024-06-21T15:37:50.000000Z
2024-08-23 15:49:50,029 - DEBUG - handler_name    : ?Mainconcept Video Media Handler
2024-08-23 15:49:50,029 - DEBUG - vendor_id       : [0][0][0][0]
2024-08-23 15:49:50,029 - DEBUG - encoder         : Lavc61.3.100 libx264
2024-08-23 15:49:50,029 - DEBUG - Side data:
2024-08-23 15:49:50,029 - DEBUG - cpb: bitrate max/min/avg: 6000000/0/0 buffer size: 9000000 vbv_delay: N/A
2024-08-23 15:49:50,029 - DEBUG - Stream #0:1(eng): Audio: aac (LC) (mp4a / 0x6134706D), 48000 Hz, stereo, fltp, 192 kb/s (default)
2024-08-23 15:49:50,029 - DEBUG - Metadata:
2024-08-23 15:49:50,029 - DEBUG - creation_time   : 2024-06-21T15:37:45.000000Z
2024-08-23 15:49:50,029 - DEBUG - handler_name    : #Mainconcept MP4 Sound Media Handler
2024-08-23 15:49:50,029 - DEBUG - vendor_id       : [0][0][0][0]
2024-08-23 15:49:50,029 - DEBUG - encoder         : Lavc61.3.100 aac
2024-08-23 15:49:50,984 - DEBUG - frame=    0 fps=0.0 q=0.0 size=       0KiB time=N/A bitrate=N/A speed=N/A
2024-08-23 15:49:51,491 - DEBUG - frame=    0 fps=0.0 q=0.0 size=       0KiB time=N/A bitrate=N/A speed=N/A
2024-08-23 15:49:51,994 - DEBUG - frame=   24 fps= 16 q=41.0 size=       0KiB time=00:00:00.73 bitrate=   0.5kbits/s speed=0.484x
2024-08-23 15:49:52,496 - DEBUG - frame=   52 fps= 26 q=41.0 size=       0KiB time=00:00:01.66 bitrate=   0.2kbits/s speed=0.825x
2024-08-23 15:49:53,001 - DEBUG - frame=   76 fps= 30 q=41.0 size=       0KiB time=00:00:02.46 bitrate=   0.2kbits/s speed=0.978x
2024-08-23 15:49:53,509 - DEBUG - frame=  103 fps= 34 q=41.0 size=       0KiB time=00:00:03.36 bitrate=   0.1kbits/s speed=1.11x
2024-08-23 15:49:54,014 - DEBUG - frame=  125 fps= 35 q=41.0 size=     256KiB time=00:00:04.10 bitrate= 511.6kbits/s speed=1.16x
2024-08-23 15:49:54,520 - DEBUG - frame=  150 fps= 37 q=41.0 size=     256KiB time=00:00:04.93 bitrate= 425.2kbits/s speed=1.22x
2024-08-23 15:49:55,025 - DEBUG - frame=  177 fps= 39 q=41.0 size=     256KiB time=00:00:05.83 bitrate= 359.6kbits/s speed=1.28x
2024-08-23 15:49:55,532 - DEBUG - frame=  203 fps= 40 q=41.0 size=     512KiB time=00:00:06.70 bitrate= 626.1kbits/s speed=1.33x
2024-08-23 15:49:56,033 - DEBUG - frame=  229 fps= 41 q=41.0 size=     512KiB time=00:00:07.56 bitrate= 554.4kbits/s speed=1.36x
2024-08-23 15:49:56,538 - DEBUG - frame=  255 fps= 42 q=41.0 size=     512KiB time=00:00:08.43 bitrate= 497.4kbits/s speed=1.39x
2024-08-23 15:49:57,043 - DEBUG - frame=  281 fps= 43 q=41.0 size=     768KiB time=00:00:09.30 bitrate= 676.5kbits/s speed=1.42x
2024-08-23 15:49:57,548 - DEBUG - frame=  305 fps= 43 q=41.0 size=     768KiB time=00:00:10.10 bitrate= 623.0kbits/s speed=1.43x
2024-08-23 15:49:58,053 - DEBUG - frame=  328 fps= 43 q=41.0 size=     768KiB time=00:00:10.86 bitrate= 579.0kbits/s speed=1.43x
2024-08-23 15:49:58,558 - DEBUG - frame=  352 fps= 44 q=41.0 size=     768KiB time=00:00:11.66 bitrate= 539.3kbits/s speed=1.44x
2024-08-23 15:49:59,073 - DEBUG - frame=  372 fps= 43 q=41.0 size=    1024KiB time=00:00:12.33 bitrate= 680.2kbits/s speed=1.44x
2024-08-23 15:49:59,578 - DEBUG - frame=  393 fps= 43 q=41.0 size=    1024KiB time=00:00:13.10 bitrate= 640.4kbits/s speed=1.44x
2024-08-23 15:50:00,081 - DEBUG - frame=  416 fps= 43 q=41.0 size=    1280KiB time=00:00:13.80 bitrate= 759.9kbits/s speed=1.44x
2024-08-23 15:50:00,586 - DEBUG - frame=  436 fps= 43 q=41.0 size=    1536KiB time=00:00:14.46 bitrate= 869.8kbits/s speed=1.43x
2024-08-23 15:50:01,091 - DEBUG - frame=  461 fps= 43 q=41.0 size=    1792KiB time=00:00:15.30 bitrate= 959.5kbits/s speed=1.44x
2024-08-23 15:50:01,599 - DEBUG - frame=  489 fps= 44 q=41.0 size=    2048KiB time=00:00:16.23 bitrate=1033.5kbits/s speed=1.46x
2024-08-23 15:50:02,101 - DEBUG - frame=  515 fps= 44 q=41.0 size=    2048KiB time=00:00:17.10 bitrate= 981.1kbits/s speed=1.47x
2024-08-23 15:50:02,606 - DEBUG - frame=  540 fps= 45 q=41.0 size=    2048KiB time=00:00:17.93 bitrate= 935.6kbits/s speed=1.48x
2024-08-23 15:50:03,106 - DEBUG - frame=  565 fps= 45 q=41.0 size=    2304KiB time=00:00:18.76 bitrate=1005.8kbits/s speed=1.49x
2024-08-23 15:50:03,566 - DEBUG - frame=  600 fps= 46 q=41.0 size=    2304KiB time=N/A bitrate=N/A speed=N/A
2024-08-23 15:50:03,566 - DEBUG - [mp4 @ 0x136f06940] Starting second pass: moving the moov atom to the beginning of the file
2024-08-23 15:50:03,567 - DEBUG - [out#0/mp4 @ 0x136f063d0] video:2217KiB audio:521KiB subtitle:0KiB other streams:0KiB global headers:0KiB muxing overhead: 0.909333%
2024-08-23 15:50:03,567 - DEBUG - frame=  664 fps= 49 q=-1.0 Lsize=    2763KiB time=00:00:22.06 bitrate=1025.9kbits/s speed=1.62x
2024-08-23 15:50:03,568 - DEBUG - [libx264 @ 0x136f0b670] frame I:3     Avg QP:23.67  size: 33850
2024-08-23 15:50:03,568 - DEBUG - [libx264 @ 0x136f0b670] frame P:207   Avg QP:33.47  size:  5078
2024-08-23 15:50:03,568 - DEBUG - [libx264 @ 0x136f0b670] frame B:454   Avg QP:40.09  size:  2460
2024-08-23 15:50:03,568 - DEBUG - [libx264 @ 0x136f0b670] consecutive B-frames:  6.2%  4.2% 11.3% 78.3%
2024-08-23 15:50:03,568 - DEBUG - [libx264 @ 0x136f0b670] mb I  I16..4: 21.4% 74.2%  4.4%
2024-08-23 15:50:03,568 - DEBUG - [libx264 @ 0x136f0b670] mb P  I16..4:  0.1%  0.9%  0.5%  P16..4:  2.4%  0.7%  0.4%  0.0%  0.0%    skip:95.0%
2024-08-23 15:50:03,568 - DEBUG - [libx264 @ 0x136f0b670] mb B  I16..4:  0.0%  0.1%  0.1%  B16..8:  2.2%  0.8%  0.2%  direct: 0.2%  skip:96.5%  L0:48.7% L1:42.8% BI: 8.4%
2024-08-23 15:50:03,568 - DEBUG - [libx264 @ 0x136f0b670] 8x8 transform intra:66.0% inter:30.6%
2024-08-23 15:50:03,568 - DEBUG - [libx264 @ 0x136f0b670] direct mvs  spatial:97.8% temporal:2.2%
2024-08-23 15:50:03,568 - DEBUG - [libx264 @ 0x136f0b670] coded y,uvDC,uvAC intra: 26.3% 19.7% 14.8% inter: 0.7% 0.5% 0.1%
2024-08-23 15:50:03,568 - DEBUG - [libx264 @ 0x136f0b670] i16 v,h,dc,p: 74% 17%  6%  3%
2024-08-23 15:50:03,568 - DEBUG - [libx264 @ 0x136f0b670] i8 v,h,dc,ddl,ddr,vr,hd,vl,hu: 29% 11% 42%  3%  3%  3%  3%  3%  3%
2024-08-23 15:50:03,568 - DEBUG - [libx264 @ 0x136f0b670] i4 v,h,dc,ddl,ddr,vr,hd,vl,hu: 12% 12% 34%  6%  8%  6%  8%  6%  8%
2024-08-23 15:50:03,568 - DEBUG - [libx264 @ 0x136f0b670] i8c dc,h,v,p: 85%  6%  5%  4%
2024-08-23 15:50:03,568 - DEBUG - [libx264 @ 0x136f0b670] Weighted P-Frames: Y:0.5% UV:0.5%
2024-08-23 15:50:03,568 - DEBUG - [libx264 @ 0x136f0b670] ref P L0: 73.9% 11.3%  9.2%  4.9%  0.6%
2024-08-23 15:50:03,568 - DEBUG - [libx264 @ 0x136f0b670] ref B L0: 77.0% 15.1%  6.1%  1.9%
2024-08-23 15:50:03,568 - DEBUG - [libx264 @ 0x136f0b670] ref B L1: 94.5%  5.5%
2024-08-23 15:50:03,568 - DEBUG - [libx264 @ 0x136f0b670] kb/s:820.28
2024-08-23 15:50:03,587 - DEBUG - [aac @ 0x136f7e7a0] Qavg: 2992.394
2024-08-23 15:50:03,608 - INFO - Video processing completed. Output saved to out_itr_2/processed_HOD.mp4
2024-08-23 15:50:03,608 - INFO - Starting video processing for dataset/cat.mp4
2024-08-23 15:50:03,608 - INFO - Executing FFmpeg command: ffmpeg -y -i dataset/cat.mp4 -preset veryslow -crf 18 -maxrate 6000k -bufsize 9000k -vf unsharp=5:5:1.0,scale='min(1440,iw)':'-2' -c:v libx264 -preset slow -crf 23 -pix_fmt yuv420p10le -c:a aac -b:a 192k -movflags +faststart out_itr_2/processed_cat.mp4
2024-08-23 15:50:03,634 - DEBUG - ffmpeg version 7.0.2 Copyright (c) 2000-2024 the FFmpeg developers
2024-08-23 15:50:03,634 - DEBUG - built with Apple clang version 15.0.0 (clang-1500.3.9.4)
2024-08-23 15:50:03,634 - DEBUG - configuration: --prefix=/opt/homebrew/Cellar/ffmpeg/7.0.2 --enable-shared --enable-pthreads --enable-version3 --cc=clang --host-cflags= --host-ldflags='-Wl,-ld_classic' --enable-ffplay --enable-gnutls --enable-gpl --enable-libaom --enable-libaribb24 --enable-libbluray --enable-libdav1d --enable-libharfbuzz --enable-libjxl --enable-libmp3lame --enable-libopus --enable-librav1e --enable-librist --enable-librubberband --enable-libsnappy --enable-libsrt --enable-libssh --enable-libsvtav1 --enable-libtesseract --enable-libtheora --enable-libvidstab --enable-libvmaf --enable-libvorbis --enable-libvpx --enable-libwebp --enable-libx264 --enable-libx265 --enable-libxml2 --enable-libxvid --enable-lzma --enable-libfontconfig --enable-libfreetype --enable-frei0r --enable-libass --enable-libopencore-amrnb --enable-libopencore-amrwb --enable-libopenjpeg --enable-libspeex --enable-libsoxr --enable-libzmq --enable-libzimg --disable-libjack --disable-indev=jack --enable-videotoolbox --enable-audiotoolbox --enable-neon
2024-08-23 15:50:03,634 - DEBUG - libavutil      59.  8.100 / 59.  8.100
2024-08-23 15:50:03,634 - DEBUG - libavcodec     61.  3.100 / 61.  3.100
2024-08-23 15:50:03,634 - DEBUG - libavformat    61.  1.100 / 61.  1.100
2024-08-23 15:50:03,634 - DEBUG - libavdevice    61.  1.100 / 61.  1.100
2024-08-23 15:50:03,634 - DEBUG - libavfilter    10.  1.100 / 10.  1.100
2024-08-23 15:50:03,634 - DEBUG - libswscale      8.  1.100 /  8.  1.100
2024-08-23 15:50:03,634 - DEBUG - libswresample   5.  1.100 /  5.  1.100
2024-08-23 15:50:03,634 - DEBUG - libpostproc    58.  1.100 / 58.  1.100
2024-08-23 15:50:03,756 - DEBUG - Input #0, mov,mp4,m4a,3gp,3g2,mj2, from 'dataset/cat.mp4':
2024-08-23 15:50:03,756 - DEBUG - Metadata:
2024-08-23 15:50:03,756 - DEBUG - major_brand     : mp42
2024-08-23 15:50:03,756 - DEBUG - minor_version   : 0
2024-08-23 15:50:03,756 - DEBUG - compatible_brands: mp42mp41
2024-08-23 15:50:03,756 - DEBUG - creation_time   : 2024-07-27T10:00:02.000000Z
2024-08-23 15:50:03,756 - DEBUG - Duration: 00:00:02.04, start: 0.000000, bitrate: 10187 kb/s
2024-08-23 15:50:03,756 - DEBUG - Stream #0:0[0x2](eng): Audio: aac (LC) (mp4a / 0x6134706D), 48000 Hz, stereo, fltp, 314 kb/s (default)
2024-08-23 15:50:03,756 - DEBUG - Metadata:
2024-08-23 15:50:03,756 - DEBUG - creation_time   : 2024-07-27T10:00:05.000000Z
2024-08-23 15:50:03,756 - DEBUG - handler_name    : #Mainconcept MP4 Sound Media Handler
2024-08-23 15:50:03,756 - DEBUG - vendor_id       : [0][0][0][0]
2024-08-23 15:50:03,756 - DEBUG - Stream #0:1[0x1](eng): Video: h264 (Main) (avc1 / 0x31637661), yuv420p(tv, bt709, progressive), 2700x5400, 9627 kb/s, 25 fps, 25 tbr, 25k tbn (default)
2024-08-23 15:50:03,756 - DEBUG - Metadata:
2024-08-23 15:50:03,756 - DEBUG - creation_time   : 2024-07-27T10:00:05.000000Z
2024-08-23 15:50:03,756 - DEBUG - handler_name    : ?Mainconcept Video Media Handler
2024-08-23 15:50:03,756 - DEBUG - vendor_id       : [0][0][0][0]
2024-08-23 15:50:03,756 - DEBUG - encoder         : AVC Coding
2024-08-23 15:50:03,757 - DEBUG - Stream mapping:
2024-08-23 15:50:03,757 - DEBUG - Stream #0:1 -> #0:0 (h264 (native) -> h264 (libx264))
2024-08-23 15:50:03,757 - DEBUG - Stream #0:0 -> #0:1 (aac (native) -> aac (native))
2024-08-23 15:50:03,757 - DEBUG - Press [q] to stop, [?] for help
2024-08-23 15:50:03,817 - DEBUG - [libx264 @ 0x1356300e0] using cpu capabilities: ARMv8 NEON
2024-08-23 15:50:03,818 - DEBUG - [libx264 @ 0x1356300e0] profile High 10, level 5.0, 4:2:0, 10-bit
2024-08-23 15:50:03,818 - DEBUG - [libx264 @ 0x1356300e0] 264 - core 164 r3108 31e19f9 - H.264/MPEG-4 AVC codec - Copyleft 2003-2023 - http://www.videolan.org/x264.html - options: cabac=1 ref=5 deblock=1:0:0 analyse=0x3:0x113 me=hex subme=8 psy=1 psy_rd=1.00:0.00 mixed_ref=1 me_range=16 chroma_me=1 trellis=2 8x8dct=1 cqm=0 deadzone=21,11 fast_pskip=1 chroma_qp_offset=-2 threads=18 lookahead_threads=3 sliced_threads=0 nr=0 decimate=1 interlaced=0 bluray_compat=0 constrained_intra=0 bframes=3 b_pyramid=2 b_adapt=1 b_bias=0 direct=3 weightb=1 open_gop=0 weightp=2 keyint=250 keyint_min=25 scenecut=40 intra_refresh=0 rc_lookahead=50 rc=crf mbtree=1 crf=23.0 qcomp=0.60 qpmin=0 qpmax=81 qpstep=4 vbv_maxrate=6000 vbv_bufsize=9000 crf_max=0.0 nal_hrd=none filler=0 ip_ratio=1.40 aq=1:1.00
2024-08-23 15:50:03,818 - DEBUG - Output #0, mp4, to 'out_itr_2/processed_cat.mp4':
2024-08-23 15:50:03,818 - DEBUG - Metadata:
2024-08-23 15:50:03,818 - DEBUG - major_brand     : mp42
2024-08-23 15:50:03,818 - DEBUG - minor_version   : 0
2024-08-23 15:50:03,818 - DEBUG - compatible_brands: mp42mp41
2024-08-23 15:50:03,818 - DEBUG - encoder         : Lavf61.1.100
2024-08-23 15:50:03,818 - DEBUG - Stream #0:0(eng): Video: h264 (avc1 / 0x31637661), yuv420p10le(tv, bt709, progressive), 1440x2880, q=2-31, 25 fps, 12800 tbn (default)
2024-08-23 15:50:03,818 - DEBUG - Metadata:
2024-08-23 15:50:03,818 - DEBUG - creation_time   : 2024-07-27T10:00:05.000000Z
2024-08-23 15:50:03,818 - DEBUG - handler_name    : ?Mainconcept Video Media Handler
2024-08-23 15:50:03,818 - DEBUG - vendor_id       : [0][0][0][0]
2024-08-23 15:50:03,818 - DEBUG - encoder         : Lavc61.3.100 libx264
2024-08-23 15:50:03,818 - DEBUG - Side data:
2024-08-23 15:50:03,818 - DEBUG - cpb: bitrate max/min/avg: 6000000/0/0 buffer size: 9000000 vbv_delay: N/A
2024-08-23 15:50:03,818 - DEBUG - Stream #0:1(eng): Audio: aac (LC) (mp4a / 0x6134706D), 48000 Hz, stereo, fltp, 192 kb/s (default)
2024-08-23 15:50:03,818 - DEBUG - Metadata:
2024-08-23 15:50:03,818 - DEBUG - creation_time   : 2024-07-27T10:00:05.000000Z
2024-08-23 15:50:03,818 - DEBUG - handler_name    : #Mainconcept MP4 Sound Media Handler
2024-08-23 15:50:03,818 - DEBUG - vendor_id       : [0][0][0][0]
2024-08-23 15:50:03,818 - DEBUG - encoder         : Lavc61.3.100 aac
2024-08-23 15:50:04,770 - DEBUG - frame=    0 fps=0.0 q=0.0 size=       0KiB time=N/A bitrate=N/A speed=N/A
2024-08-23 15:50:05,278 - DEBUG - frame=    0 fps=0.0 q=0.0 size=       0KiB time=N/A bitrate=N/A speed=N/A
2024-08-23 15:50:05,782 - DEBUG - frame=    0 fps=0.0 q=0.0 size=       0KiB time=N/A bitrate=N/A speed=N/A
2024-08-23 15:50:06,287 - DEBUG - frame=   18 fps=8.9 q=40.0 size=     256KiB time=N/A bitrate=N/A speed=N/A
2024-08-23 15:50:06,411 - DEBUG - frame=   44 fps= 17 q=-1.0 size=     768KiB time=N/A bitrate=N/A speed=N/A
2024-08-23 15:50:06,411 - DEBUG - [mp4 @ 0x13562e700] Starting second pass: moving the moov atom to the beginning of the file
2024-08-23 15:50:06,413 - DEBUG - [out#0/mp4 @ 0x13562e640] video:954KiB audio:1KiB subtitle:0KiB other streams:0KiB global headers:0KiB muxing overhead: 0.309036%
2024-08-23 15:50:06,413 - DEBUG - frame=   51 fps= 19 q=-1.0 Lsize=     958KiB time=00:00:01.96 bitrate=4003.7kbits/s speed=0.738x
2024-08-23 15:50:06,413 - DEBUG - [libx264 @ 0x1356300e0] frame I:1     Avg QP:27.36  size: 95244
2024-08-23 15:50:06,413 - DEBUG - [libx264 @ 0x1356300e0] frame P:15    Avg QP:36.09  size: 22773
2024-08-23 15:50:06,413 - DEBUG - [libx264 @ 0x1356300e0] frame B:35    Avg QP:39.53  size: 15420
2024-08-23 15:50:06,413 - DEBUG - [libx264 @ 0x1356300e0] consecutive B-frames:  5.9%  3.9% 11.8% 78.4%
2024-08-23 15:50:06,413 - DEBUG - [libx264 @ 0x1356300e0] mb I  I16..4: 27.0% 68.6%  4.4%
2024-08-23 15:50:06,413 - DEBUG - [libx264 @ 0x1356300e0] mb P  I16..4:  0.5%  7.0%  1.3%  P16..4:  4.0%  0.9%  0.4%  0.0%  0.0%    skip:85.9%
2024-08-23 15:50:06,413 - DEBUG - [libx264 @ 0x1356300e0] mb B  I16..4:  0.1%  1.5%  0.4%  B16..8:  6.4%  2.0%  0.4%  direct: 0.7%  skip:88.5%  L0:48.9% L1:42.4% BI: 8.7%
2024-08-23 15:50:06,413 - DEBUG - [libx264 @ 0x1356300e0] 8x8 transform intra:75.6% inter:66.4%
2024-08-23 15:50:06,413 - DEBUG - [libx264 @ 0x1356300e0] direct mvs  spatial:74.3% temporal:25.7%
2024-08-23 15:50:06,413 - DEBUG - [libx264 @ 0x1356300e0] coded y,uvDC,uvAC intra: 47.8% 15.4% 2.8% inter: 3.1% 0.9% 0.0%
2024-08-23 15:50:06,413 - DEBUG - [libx264 @ 0x1356300e0] i16 v,h,dc,p: 82%  8%  3%  6%
2024-08-23 15:50:06,413 - DEBUG - [libx264 @ 0x1356300e0] i8 v,h,dc,ddl,ddr,vr,hd,vl,hu: 15% 10% 26%  6% 11%  9% 10%  6%  7%
2024-08-23 15:50:06,413 - DEBUG - [libx264 @ 0x1356300e0] i4 v,h,dc,ddl,ddr,vr,hd,vl,hu: 13% 10% 18%  7% 15% 11% 11%  7%  8%
2024-08-23 15:50:06,413 - DEBUG - [libx264 @ 0x1356300e0] i8c dc,h,v,p: 87%  6%  5%  2%
2024-08-23 15:50:06,413 - DEBUG - [libx264 @ 0x1356300e0] Weighted P-Frames: Y:0.0% UV:0.0%
2024-08-23 15:50:06,413 - DEBUG - [libx264 @ 0x1356300e0] ref P L0: 65.3% 16.1% 11.7%  6.0%  0.8%
2024-08-23 15:50:06,413 - DEBUG - [libx264 @ 0x1356300e0] ref B L0: 86.4%  9.9%  2.9%  0.8%
2024-08-23 15:50:06,413 - DEBUG - [libx264 @ 0x1356300e0] ref B L1: 96.6%  3.4%
2024-08-23 15:50:06,413 - DEBUG - [libx264 @ 0x1356300e0] kb/s:3829.51
2024-08-23 15:50:06,438 - DEBUG - [aac @ 0x1356a5b10] Qavg: 65536.000
2024-08-23 15:50:06,455 - INFO - Video processing completed. Output saved to out_itr_2/processed_cat.mp4
2024-08-23 15:50:06,455 - INFO - Starting video processing for dataset/building.mp4
2024-08-23 15:50:06,455 - INFO - Executing FFmpeg command: ffmpeg -y -i dataset/building.mp4 -preset veryslow -crf 18 -maxrate 6000k -bufsize 9000k -vf unsharp=5:5:1.0,scale='min(1440,iw)':'-2' -c:v libx264 -preset slow -crf 23 -pix_fmt yuv420p10le -c:a aac -b:a 192k -movflags +faststart out_itr_2/processed_building.mp4
2024-08-23 15:50:06,481 - DEBUG - ffmpeg version 7.0.2 Copyright (c) 2000-2024 the FFmpeg developers
2024-08-23 15:50:06,481 - DEBUG - built with Apple clang version 15.0.0 (clang-1500.3.9.4)
2024-08-23 15:50:06,481 - DEBUG - configuration: --prefix=/opt/homebrew/Cellar/ffmpeg/7.0.2 --enable-shared --enable-pthreads --enable-version3 --cc=clang --host-cflags= --host-ldflags='-Wl,-ld_classic' --enable-ffplay --enable-gnutls --enable-gpl --enable-libaom --enable-libaribb24 --enable-libbluray --enable-libdav1d --enable-libharfbuzz --enable-libjxl --enable-libmp3lame --enable-libopus --enable-librav1e --enable-librist --enable-librubberband --enable-libsnappy --enable-libsrt --enable-libssh --enable-libsvtav1 --enable-libtesseract --enable-libtheora --enable-libvidstab --enable-libvmaf --enable-libvorbis --enable-libvpx --enable-libwebp --enable-libx264 --enable-libx265 --enable-libxml2 --enable-libxvid --enable-lzma --enable-libfontconfig --enable-libfreetype --enable-frei0r --enable-libass --enable-libopencore-amrnb --enable-libopencore-amrwb --enable-libopenjpeg --enable-libspeex --enable-libsoxr --enable-libzmq --enable-libzimg --disable-libjack --disable-indev=jack --enable-videotoolbox --enable-audiotoolbox --enable-neon
2024-08-23 15:50:06,481 - DEBUG - libavutil      59.  8.100 / 59.  8.100
2024-08-23 15:50:06,481 - DEBUG - libavcodec     61.  3.100 / 61.  3.100
2024-08-23 15:50:06,481 - DEBUG - libavformat    61.  1.100 / 61.  1.100
2024-08-23 15:50:06,481 - DEBUG - libavdevice    61.  1.100 / 61.  1.100
2024-08-23 15:50:06,481 - DEBUG - libavfilter    10.  1.100 / 10.  1.100
2024-08-23 15:50:06,481 - DEBUG - libswscale      8.  1.100 /  8.  1.100
2024-08-23 15:50:06,481 - DEBUG - libswresample   5.  1.100 /  5.  1.100
2024-08-23 15:50:06,481 - DEBUG - libpostproc    58.  1.100 / 58.  1.100
2024-08-23 15:50:06,549 - DEBUG - Input #0, mov,mp4,m4a,3gp,3g2,mj2, from 'dataset/building.mp4':
2024-08-23 15:50:06,549 - DEBUG - Metadata:
2024-08-23 15:50:06,549 - DEBUG - major_brand     : mp42
2024-08-23 15:50:06,549 - DEBUG - minor_version   : 0
2024-08-23 15:50:06,549 - DEBUG - compatible_brands: mp42mp41
2024-08-23 15:50:06,549 - DEBUG - creation_time   : 2024-07-18T18:11:36.000000Z
2024-08-23 15:50:06,549 - DEBUG - Duration: 00:00:30.07, start: 0.000000, bitrate: 5465 kb/s
2024-08-23 15:50:06,549 - DEBUG - Stream #0:0[0x1](eng): Video: h264 (Main) (avc1 / 0x31637661), yuv420p(tv, bt709, progressive), 2000x5836, 5070 kb/s, 30 fps, 30 tbr, 30k tbn (default)
2024-08-23 15:50:06,549 - DEBUG - Metadata:
2024-08-23 15:50:06,549 - DEBUG - creation_time   : 2024-07-18T18:11:36.000000Z
2024-08-23 15:50:06,549 - DEBUG - handler_name    : ?Mainconcept Video Media Handler
2024-08-23 15:50:06,549 - DEBUG - vendor_id       : [0][0][0][0]
2024-08-23 15:50:06,549 - DEBUG - encoder         : AVC Coding
2024-08-23 15:50:06,549 - DEBUG - Stream #0:1[0x2](eng): Audio: aac (LC) (mp4a / 0x6134706D), 48000 Hz, stereo, fltp, 317 kb/s (default)
2024-08-23 15:50:06,549 - DEBUG - Metadata:
2024-08-23 15:50:06,549 - DEBUG - creation_time   : 2024-07-18T18:11:36.000000Z
2024-08-23 15:50:06,549 - DEBUG - handler_name    : #Mainconcept MP4 Sound Media Handler
2024-08-23 15:50:06,549 - DEBUG - vendor_id       : [0][0][0][0]
2024-08-23 15:50:06,550 - DEBUG - Stream mapping:
2024-08-23 15:50:06,550 - DEBUG - Stream #0:0 -> #0:0 (h264 (native) -> h264 (libx264))
2024-08-23 15:50:06,550 - DEBUG - Stream #0:1 -> #0:1 (aac (native) -> aac (native))
2024-08-23 15:50:06,550 - DEBUG - Press [q] to stop, [?] for help
2024-08-23 15:50:06,598 - DEBUG - [libx264 @ 0x13880dc60] using cpu capabilities: ARMv8 NEON
2024-08-23 15:50:06,599 - DEBUG - [libx264 @ 0x13880dc60] profile High 10, level 5.1, 4:2:0, 10-bit
2024-08-23 15:50:06,599 - DEBUG - [libx264 @ 0x13880dc60] 264 - core 164 r3108 31e19f9 - H.264/MPEG-4 AVC codec - Copyleft 2003-2023 - http://www.videolan.org/x264.html - options: cabac=1 ref=5 deblock=1:0:0 analyse=0x3:0x113 me=hex subme=8 psy=1 psy_rd=1.00:0.00 mixed_ref=1 me_range=16 chroma_me=1 trellis=2 8x8dct=1 cqm=0 deadzone=21,11 fast_pskip=1 chroma_qp_offset=-2 threads=18 lookahead_threads=3 sliced_threads=0 nr=0 decimate=1 interlaced=0 bluray_compat=0 constrained_intra=0 bframes=3 b_pyramid=2 b_adapt=1 b_bias=0 direct=3 weightb=1 open_gop=0 weightp=2 keyint=250 keyint_min=25 scenecut=40 intra_refresh=0 rc_lookahead=50 rc=crf mbtree=1 crf=23.0 qcomp=0.60 qpmin=0 qpmax=81 qpstep=4 vbv_maxrate=6000 vbv_bufsize=9000 crf_max=0.0 nal_hrd=none filler=0 ip_ratio=1.40 aq=1:1.00
2024-08-23 15:50:06,599 - DEBUG - Output #0, mp4, to 'out_itr_2/processed_building.mp4':
2024-08-23 15:50:06,599 - DEBUG - Metadata:
2024-08-23 15:50:06,599 - DEBUG - major_brand     : mp42
2024-08-23 15:50:06,599 - DEBUG - minor_version   : 0
2024-08-23 15:50:06,599 - DEBUG - compatible_brands: mp42mp41
2024-08-23 15:50:06,599 - DEBUG - encoder         : Lavf61.1.100
2024-08-23 15:50:06,599 - DEBUG - Stream #0:0(eng): Video: h264 (avc1 / 0x31637661), yuv420p10le(tv, bt709, progressive), 1440x4202, q=2-31, 30 fps, 15360 tbn (default)
2024-08-23 15:50:06,599 - DEBUG - Metadata:
2024-08-23 15:50:06,600 - DEBUG - creation_time   : 2024-07-18T18:11:36.000000Z
2024-08-23 15:50:06,600 - DEBUG - handler_name    : ?Mainconcept Video Media Handler
2024-08-23 15:50:06,600 - DEBUG - vendor_id       : [0][0][0][0]
2024-08-23 15:50:06,600 - DEBUG - encoder         : Lavc61.3.100 libx264
2024-08-23 15:50:06,600 - DEBUG - Side data:
2024-08-23 15:50:06,600 - DEBUG - cpb: bitrate max/min/avg: 6000000/0/0 buffer size: 9000000 vbv_delay: N/A
2024-08-23 15:50:06,600 - DEBUG - Stream #0:1(eng): Audio: aac (LC) (mp4a / 0x6134706D), 48000 Hz, stereo, fltp, 192 kb/s (default)
2024-08-23 15:50:06,600 - DEBUG - Metadata:
2024-08-23 15:50:06,600 - DEBUG - creation_time   : 2024-07-18T18:11:36.000000Z
2024-08-23 15:50:06,600 - DEBUG - handler_name    : #Mainconcept MP4 Sound Media Handler
2024-08-23 15:50:06,600 - DEBUG - vendor_id       : [0][0][0][0]
2024-08-23 15:50:06,600 - DEBUG - encoder         : Lavc61.3.100 aac
2024-08-23 15:50:07,562 - DEBUG - frame=    0 fps=0.0 q=0.0 size=       0KiB time=N/A bitrate=N/A speed=N/A
2024-08-23 15:50:08,070 - DEBUG - frame=    0 fps=0.0 q=0.0 size=       0KiB time=N/A bitrate=N/A speed=N/A
2024-08-23 15:50:08,573 - DEBUG - frame=    4 fps=2.6 q=41.0 size=       0KiB time=00:00:00.06 bitrate=   5.8kbits/s speed=0.0439x
2024-08-23 15:50:09,075 - DEBUG - frame=   27 fps= 13 q=41.0 size=       0KiB time=00:00:00.83 bitrate=   0.5kbits/s speed=0.412x
2024-08-23 15:50:09,580 - DEBUG - frame=   48 fps= 19 q=41.0 size=       0KiB time=00:00:01.53 bitrate=   0.3kbits/s speed=0.607x
2024-08-23 15:50:10,085 - DEBUG - frame=   68 fps= 22 q=41.0 size=       0KiB time=00:00:02.20 bitrate=   0.2kbits/s speed=0.726x
2024-08-23 15:50:10,594 - DEBUG - frame=   91 fps= 26 q=41.0 size=       0KiB time=00:00:02.96 bitrate=   0.1kbits/s speed=0.839x
2024-08-23 15:50:11,095 - DEBUG - frame=  112 fps= 28 q=41.0 size=       0KiB time=00:00:03.66 bitrate=   0.1kbits/s speed=0.907x
2024-08-23 15:50:11,600 - DEBUG - frame=  132 fps= 29 q=41.0 size=       0KiB time=00:00:04.33 bitrate=   0.1kbits/s speed=0.953x
2024-08-23 15:50:12,105 - DEBUG - frame=  152 fps= 30 q=41.0 size=       0KiB time=00:00:05.00 bitrate=   0.1kbits/s speed=0.99x
2024-08-23 15:50:12,605 - DEBUG - frame=  172 fps= 31 q=41.0 size=       0KiB time=00:00:05.66 bitrate=   0.1kbits/s speed=1.02x
2024-08-23 15:50:13,110 - DEBUG - frame=  193 fps= 32 q=41.0 size=       0KiB time=00:00:06.36 bitrate=   0.1kbits/s speed=1.05x
2024-08-23 15:50:13,615 - DEBUG - frame=  212 fps= 32 q=41.0 size=       0KiB time=00:00:07.00 bitrate=   0.1kbits/s speed=1.07x
2024-08-23 15:50:14,120 - DEBUG - frame=  233 fps= 33 q=41.0 size=     256KiB time=00:00:07.70 bitrate= 272.4kbits/s speed=1.09x
2024-08-23 15:50:14,625 - DEBUG - frame=  249 fps= 33 q=41.0 size=     256KiB time=00:00:08.23 bitrate= 254.8kbits/s speed=1.09x
2024-08-23 15:50:15,130 - DEBUG - frame=  268 fps= 33 q=41.0 size=     256KiB time=00:00:08.86 bitrate= 236.6kbits/s speed= 1.1x
2024-08-23 15:50:15,635 - DEBUG - frame=  290 fps= 34 q=41.0 size=     256KiB time=00:00:09.60 bitrate= 218.5kbits/s speed=1.12x
2024-08-23 15:50:16,142 - DEBUG - frame=  310 fps= 34 q=41.0 size=     256KiB time=00:00:10.26 bitrate= 204.3kbits/s speed=1.13x
2024-08-23 15:50:16,647 - DEBUG - frame=  329 fps= 34 q=41.0 size=     256KiB time=00:00:10.93 bitrate= 191.8kbits/s speed=1.14x
2024-08-23 15:50:17,152 - DEBUG - frame=  350 fps= 35 q=41.0 size=     256KiB time=00:00:11.60 bitrate= 180.8kbits/s speed=1.15x
2024-08-23 15:50:17,657 - DEBUG - frame=  370 fps= 35 q=41.0 size=     256KiB time=00:00:12.26 bitrate= 171.0kbits/s speed=1.16x
2024-08-23 15:50:18,159 - DEBUG - frame=  390 fps= 35 q=41.0 size=     512KiB time=00:00:12.93 bitrate= 324.3kbits/s speed=1.16x
2024-08-23 15:50:18,664 - DEBUG - frame=  410 fps= 35 q=41.0 size=     512KiB time=00:00:13.60 bitrate= 308.4kbits/s speed=1.17x
2024-08-23 15:50:19,173 - DEBUG - frame=  430 fps= 35 q=41.0 size=     512KiB time=00:00:14.26 bitrate= 294.0kbits/s speed=1.18x
2024-08-23 15:50:19,680 - DEBUG - frame=  450 fps= 36 q=41.0 size=     512KiB time=00:00:14.93 bitrate= 280.9kbits/s speed=1.18x
2024-08-23 15:50:20,189 - DEBUG - frame=  471 fps= 36 q=41.0 size=     512KiB time=00:00:15.63 bitrate= 268.3kbits/s speed=1.19x
2024-08-23 15:50:20,693 - DEBUG - frame=  487 fps= 36 q=41.0 size=     512KiB time=00:00:16.16 bitrate= 259.5kbits/s speed=1.19x
2024-08-23 15:50:21,194 - DEBUG - frame=  505 fps= 36 q=41.0 size=     512KiB time=00:00:16.76 bitrate= 250.2kbits/s speed=1.19x
2024-08-23 15:50:21,698 - DEBUG - frame=  524 fps= 36 q=41.0 size=     512KiB time=00:00:17.40 bitrate= 241.1kbits/s speed=1.19x
2024-08-23 15:50:22,203 - DEBUG - frame=  543 fps= 36 q=41.0 size=     768KiB time=00:00:18.03 bitrate= 348.9kbits/s speed=1.19x
2024-08-23 15:50:22,708 - DEBUG - frame=  561 fps= 36 q=41.0 size=     768KiB time=00:00:18.63 bitrate= 337.7kbits/s speed=1.19x
2024-08-23 15:50:23,212 - DEBUG - frame=  583 fps= 36 q=41.0 size=     768KiB time=00:00:19.36 bitrate= 324.9kbits/s speed= 1.2x
2024-08-23 15:50:23,717 - DEBUG - frame=  603 fps= 36 q=41.0 size=     768KiB time=00:00:20.03 bitrate= 314.1kbits/s speed= 1.2x
2024-08-23 15:50:24,222 - DEBUG - frame=  621 fps= 36 q=41.0 size=     768KiB time=00:00:20.63 bitrate= 304.9kbits/s speed= 1.2x
2024-08-23 15:50:24,727 - DEBUG - frame=  640 fps= 36 q=41.0 size=     768KiB time=00:00:21.26 bitrate= 295.9kbits/s speed= 1.2x
2024-08-23 15:50:25,236 - DEBUG - frame=  660 fps= 36 q=41.0 size=     768KiB time=00:00:21.93 bitrate= 286.9kbits/s speed=1.21x
